<svg width="299" height="188" viewBox="0 0 299 188" fill="none" xmlns="http://www.w3.org/2000/svg">
<path d="M0 100.199C0.19394 148.454 39.4334 188 87.6376 188C135.96 188 175.272 148.614 175.272 100.199V87.8039C175.272 67.8685 191.462 51.6482 211.36 51.6482C231.26 51.6482 247.447 67.8685 247.447 87.8039C247.447 93.5084 252.064 98.1341 257.757 98.1341H288.689C294.386 98.1341 299 93.5084 299 87.8039C299 39.3894 259.688 0 211.362 0C163.04 0 123.725 39.3894 123.725 87.8039V100.199C123.725 120.137 107.535 136.352 87.6405 136.352C67.7428 136.352 51.5532 120.137 51.5532 100.199C51.5532 94.4945 46.9363 89.8688 41.2426 89.8688H10.3106C4.61692 89.8717 0 94.4945 0 100.199Z" fill="white"/>
</svg>
